<?xml version="1.0" encoding="UTF-8" standalone="no"?>
<svg xmlns="http://www.w3.org/2000/svg"
     xmlns:svg="http://www.w3.org/2000/svg"
     version="1.1"
     width="135.45mm" height="135.45mm"
     viewBox="0 0 512 512">
  <path id="path1"
        fill="#3878c5" stroke="#3878c5" stroke-width="0"
        d="M 240.00,0.21
           C 240.00,0.21 264.00,0.21 264.00,0.21
             281.89,0.03 305.67,4.18 323.00,8.85
             412.80,33.06 481.84,103.88 504.37,194.00
             508.05,208.72 511.82,230.94 512.00,246.00
             512.00,246.00 512.00,264.00 512.00,264.00
             511.98,274.13 510.11,288.88 508.41,299.00
             498.65,357.17 469.74,408.33 426.00,447.83
             410.16,462.14 392.65,473.35 374.00,483.56
             345.22,499.34 308.62,508.81 276.00,511.09
             276.00,511.09 264.00,512.00 264.00,512.00
             264.00,512.00 246.00,512.00 246.00,512.00
             246.00,512.00 236.00,511.09 236.00,511.09
             215.12,509.63 194.87,505.63 175.00,499.00
             142.75,488.24 112.59,471.15 87.00,448.71
             -0.29,372.17 -25.04,244.69 26.81,141.00
             55.21,84.20 106.33,37.93 166.00,16.05
             183.79,9.53 202.21,4.81 221.00,2.28
             221.00,2.28 240.00,0.21 240.00,0.21 Z
           M 243.00,17.28
           C 243.00,17.28 224.00,19.15 224.00,19.15
             208.69,20.99 190.53,25.52 176.00,30.69
             114.53,52.57 65.52,97.73 38.31,157.00
             -9.26,260.60 24.91,387.02 119.00,451.98
             140.47,466.80 163.88,478.25 189.00,485.42
             205.20,490.04 221.22,492.91 238.00,494.09
             238.00,494.09 248.00,495.00 248.00,495.00
             287.55,495.46 325.34,488.46 361.00,470.75
             387.96,457.37 412.60,439.37 432.83,417.00
             501.63,340.92 514.37,231.00 465.69,141.00
             451.63,115.00 432.37,92.21 410.00,73.00
             387.30,53.51 359.33,38.44 331.00,29.00
             306.12,20.71 269.10,14.86 243.00,17.28 Z
           M 243.00,34.42
           C 265.97,31.63 303.94,37.98 326.00,45.33
             352.29,54.10 377.93,68.08 399.00,86.13
             422.98,106.67 441.96,130.54 455.74,159.00
             494.82,239.74 481.42,339.95 419.91,406.00
             400.73,426.59 380.14,442.19 355.00,454.75
             322.41,471.04 286.30,478.42 250.00,478.00
             250.00,478.00 240.00,477.09 240.00,477.09
             220.80,475.75 202.26,472.22 184.00,466.00
             161.88,458.47 140.58,447.29 122.00,433.12
             103.08,418.69 86.55,401.60 73.02,382.00
             25.37,312.95 21.45,222.52 61.31,149.00
             86.09,103.29 129.92,65.17 179.00,47.69
             196.51,41.45 213.54,37.50 232.00,35.28
             232.00,35.28 243.00,34.42 243.00,34.42 Z
           M 246.00,51.28
           C 246.00,51.28 234.00,52.28 234.00,52.28
             221.25,53.80 208.27,56.21 196.00,60.02
             143.76,76.26 101.39,110.78 75.31,159.00
             34.29,234.84 46.51,330.16 104.17,394.00
             127.44,419.77 158.12,439.38 191.00,450.33
             207.31,455.76 223.89,458.89 241.00,460.09
             241.00,460.09 251.00,461.00 251.00,461.00
             284.44,461.39 312.42,454.87 343.00,441.58
             362.60,433.05 385.94,416.06 401.00,401.00
             440.71,361.29 461.65,306.86 461.00,251.00
             461.00,251.00 460.09,241.00 460.09,241.00
             456.45,188.93 432.90,139.30 394.00,104.17
             371.92,84.23 347.16,70.30 319.00,61.00
             298.95,54.38 266.97,49.33 246.00,51.28 Z
           M 248.00,77.44
           C 265.32,75.22 283.07,80.52 294.70,94.00
             316.68,119.49 308.56,161.39 277.00,174.77
             268.55,178.35 263.05,179.10 254.00,179.00
             211.18,178.50 190.22,127.20 216.47,95.00
             224.47,85.19 235.75,79.73 248.00,77.44 Z
           M 251.00,94.30
           C 244.12,95.60 238.44,97.78 233.09,102.47
             209.25,123.34 225.90,166.76 261.00,161.70
             289.83,157.54 298.72,123.02 280.70,104.17
             272.83,95.94 262.02,93.20 251.00,94.30 Z
           M 257.00,317.00
           C 252.25,321.81 248.59,334.33 245.72,341.00
             245.72,341.00 225.20,391.00 225.20,391.00
             222.56,397.55 217.41,411.97 213.47,416.98
             199.66,434.57 166.73,427.10 168.04,399.00
             168.39,391.54 176.30,373.74 179.40,366.00
             179.40,366.00 204.05,303.00 204.05,303.00
             207.55,293.63 212.87,284.19 213.00,274.00
             213.00,274.00 213.00,259.00 213.00,259.00
             213.00,256.94 213.11,253.91 212.40,252.00
             209.18,243.39 194.76,244.61 187.00,243.83
             187.00,243.83 138.00,239.28 138.00,239.28
             128.33,238.09 121.16,237.70 114.79,228.99
             106.62,217.81 108.62,200.84 120.00,192.64
             126.39,188.03 131.53,187.92 139.00,188.00
             139.00,188.00 159.00,189.83 159.00,189.83
             159.00,189.83 188.00,192.17 188.00,192.17
             188.00,192.17 232.00,196.00 232.00,196.00
             232.00,196.00 282.00,196.00 282.00,196.00
             282.00,196.00 353.00,189.83 353.00,189.83
             353.00,189.83 377.00,188.00 377.00,188.00
             392.93,188.19 402.36,199.49 401.99,215.00
             401.75,224.61 396.07,233.33 387.00,236.88
             380.42,239.46 371.07,239.48 364.00,240.17
             364.00,240.17 326.00,243.83 326.00,243.83
             318.09,244.60 302.89,243.21 299.60,252.00
             298.89,253.91 299.00,256.94 299.00,259.00
             299.00,259.00 299.00,274.00 299.00,274.00
             299.13,284.26 304.80,294.48 308.32,304.00
             308.32,304.00 333.40,368.00 333.40,368.00
             337.14,377.35 344.36,392.22 343.96,402.00
             343.34,417.39 331.85,426.35 317.00,425.99
             303.97,425.67 298.04,418.02 293.28,407.00
             293.28,407.00 268.60,347.00 268.60,347.00
             265.70,339.75 258.24,323.63 257.00,317.00 Z
           M 133.02,205.43
           C 129.62,206.84 127.84,208.06 127.24,212.00
             126.77,215.10 127.63,218.10 130.23,219.99
             133.39,222.29 152.14,223.70 157.00,223.97
             157.00,223.97 178.00,225.91 178.00,225.91
             178.00,225.91 199.00,227.72 199.00,227.72
             199.00,227.72 209.00,228.82 209.00,228.82
             217.99,230.76 225.85,237.20 228.89,246.00
             230.12,249.55 229.99,252.34 230.00,256.00
             230.00,256.00 230.00,274.00 230.00,274.00
             229.98,287.12 223.81,299.94 219.00,312.00
             219.00,312.00 197.00,368.00 197.00,368.00
             197.00,368.00 186.44,395.00 186.44,395.00
             185.06,398.95 183.97,404.09 187.43,407.35
             190.92,410.64 196.33,410.18 199.51,406.72
             202.12,403.88 207.33,389.53 209.28,385.00
             209.28,385.00 238.15,315.00 238.15,315.00
             242.30,305.34 248.71,295.70 261.00,299.85
             270.56,303.08 273.78,314.47 277.20,323.00
             277.20,323.00 302.28,384.00 302.28,384.00
             304.24,388.55 309.97,403.98 312.49,406.72
             314.43,408.83 317.15,409.91 320.00,409.34
             325.20,408.29 327.41,403.95 326.67,399.00
             326.04,394.73 320.15,380.86 318.20,376.00
             318.20,376.00 291.95,309.00 291.95,309.00
             287.99,298.40 282.14,287.52 282.00,276.00
             282.00,276.00 282.00,256.00 282.00,256.00
             282.01,252.34 281.88,249.55 283.11,246.00
             288.17,231.38 299.66,229.12 313.00,227.83
             313.00,227.83 338.00,225.42 338.00,225.42
             338.00,225.42 376.00,221.91 376.00,221.91
             381.68,221.21 385.72,218.27 384.76,212.00
             383.65,204.74 376.81,204.69 371.00,205.09
             371.00,205.09 327.00,209.09 327.00,209.09
             327.00,209.09 282.00,213.00 282.00,213.00
             282.00,213.00 230.00,213.00 230.00,213.00
             230.00,213.00 159.00,206.91 159.00,206.91
             151.77,206.38 139.70,204.40 133.02,205.43 Z">
        <title>Selection</title>
  </path>
</svg>
